HIERARCHY
ROOT joint_Root
{
	OFFSET 0.0 0.0 0.0
	CHANNELS 6 Xposition Yposition Zposition Zrotation Xrotation Yrotation 
	JOINT Hips
	{
		OFFSET -17.1583 93.1646 452.98
		CHANNELS 6 Xposition Yposition Zposition Zrotation Xrotation Yrotation 
		JOINT Spine
		{
			OFFSET 15.7357 0.0 0.0
			CHANNELS 6 Xposition Yposition Zposition Zrotation Xrotation Yrotation 
			JOINT Chest
			{
				OFFSET 8.98455 -0.406207 0.0
				CHANNELS 6 Xposition Yposition Zposition Zrotation Xrotation Yrotation 
				JOINT Neck
				{
					OFFSET 16.3773 0.0 0.0
					CHANNELS 6 Xposition Yposition Zposition Zrotation Xrotation Yrotation 
					JOINT Head
					{
						OFFSET 6.45672 0.0 0.0
						CHANNELS 6 Xposition Yposition Zposition Zrotation Xrotation Yrotation 
						End Site
						{
							OFFSET 0.0 0.0 0.0
						}
					}
				}
				JOINT Shoulder_L
				{
					OFFSET 12.9942 -0.242716 4.98039
					CHANNELS 6 Xposition Yposition Zposition Zrotation Xrotation Yrotation 
					JOINT UpperArm_L
					{
						OFFSET 5.34809 0.0 0.0
						CHANNELS 6 Xposition Yposition Zposition Zrotation Xrotation Yrotation 
						JOINT LowerArm_L
						{
							OFFSET 24.3286 1.87007e-05 0.0
							CHANNELS 6 Xposition Yposition Zposition Zrotation Xrotation Yrotation 
							JOINT Hand_L
							{
								OFFSET 22.2916 0.0 0.0
								CHANNELS 6 Xposition Yposition Zposition Zrotation Xrotation Yrotation 
								End Site
								{
									OFFSET 0.0 0.0 0.0
								}
							}
						}
					}
				}
				JOINT Shoulder_R
				{
					OFFSET 12.9945 -0.242716 -4.98039
					CHANNELS 6 Xposition Yposition Zposition Zrotation Xrotation Yrotation 
					JOINT UpperArm_R
					{
						OFFSET -5.34813 0.0 0.0
						CHANNELS 6 Xposition Yposition Zposition Zrotation Xrotation Yrotation 
						JOINT LowerArm_R
						{
							OFFSET -24.3289 0.000322201 0.0
							CHANNELS 6 Xposition Yposition Zposition Zrotation Xrotation Yrotation 
							JOINT Hand_R
							{
								OFFSET -22.2915 -0.000108084 0.0
								CHANNELS 6 Xposition Yposition Zposition Zrotation Xrotation Yrotation 
								End Site
								{
									OFFSET 0.0 0.0 0.0
								}
							}
						}
					}
				}
			}
		}
		JOINT UpperLeg_L
		{
			OFFSET -2.19248 -6.46944 0.0
			CHANNELS 6 Xposition Yposition Zposition Zrotation Xrotation Yrotation 
			JOINT LowerLeg_L
			{
				OFFSET 39.0811 0.0 -1.23785e-05
				CHANNELS 6 Xposition Yposition Zposition Zrotation Xrotation Yrotation 
				JOINT Foot_L
				{
					OFFSET 40.9854 0.0 -1.26872e-05
					CHANNELS 6 Xposition Yposition Zposition Zrotation Xrotation Yrotation 
					JOINT Toes_L
					{
						OFFSET 11.7543 0.0 0.0
						CHANNELS 6 Xposition Yposition Zposition Zrotation Xrotation Yrotation 
						End Site
						{
							OFFSET 0.0 0.0 0.0
						}
					}
				}
			}
		}
		JOINT UpperLeg_R
		{
			OFFSET -2.19251 6.46944 0.0
			CHANNELS 6 Xposition Yposition Zposition Zrotation Xrotation Yrotation 
			JOINT LowerLeg_R
			{
				OFFSET -39.0811 -0.00228153 -0.0401928
				CHANNELS 6 Xposition Yposition Zposition Zrotation Xrotation Yrotation 
				JOINT Foot_R
				{
					OFFSET -40.9854 0.0 0.0
					CHANNELS 6 Xposition Yposition Zposition Zrotation Xrotation Yrotation 
					JOINT Toes_R
					{
						OFFSET -11.7543 0.0 0.0
						CHANNELS 6 Xposition Yposition Zposition Zrotation Xrotation Yrotation 
						End Site
						{
							OFFSET 0.0 0.0 0.0
						}
					}
				}
			}
		}
	}
}
MOTION
Frames:	4
Frame Time:	0.0333333
0.000000 0.000000 0.000000 0.000000 0.000000 -0.000000 196.247000 89.739100 -110.386000 92.444600 1.820610 -3.006910 15.735700 0.000005 -0.000001 111.605000 85.786900 -113.048000 8.984550 -0.406207 -0.000000 0.111216 3.198170 -2.886650 16.377300 -0.000001 -0.000001 -2.247160 2.039750 -0.502382 6.456720 -0.000001 -0.000000 -14.611900 -0.844447 3.589250 12.994200 -0.242716 4.980390 -94.086600 10.579300 -68.736900 5.348090 -0.000007 -0.000001 -53.932500 -21.407100 3.974190 24.328600 0.000019 0.000005 1.155480 19.776700 -3.410220 22.291600 -0.000001 0.000005 5.563890 4.667930 13.710300 12.994500 -0.242716 -4.980390 87.972700 6.098610 -71.573000 -5.348130 -0.000001 -0.000004 -69.550800 14.647900 -12.737000 -24.328900 0.000322 -0.000009 -0.021074 -0.025459 -34.744100 -22.291500 -0.000108 -0.000004 2.575340 5.440820 -4.299510 -2.192480 -6.469440 -0.000000 178.356000 5.958540 -29.525500 39.081100 -0.000007 -0.000012 0.150976 -0.225588 33.792600 40.985400 -0.000006 -0.000013 -1.048500 8.320020 -65.539300 11.754300 -0.000000 0.000003 0.001586 0.134268 -11.131900 -2.192510 6.469440 -0.000001 174.211000 6.555380 -175.224000 -39.081100 -0.002282 -0.040193 0.095356 -0.105284 41.172900 -40.985400 0.000008 0.000006 -0.952831 -3.795380 -44.174400 -11.754300 -0.000006 -0.000006 -0.085640 -0.407434 -33.513600
0.000000 0.000000 0.000000 0.000000 0.000000 -0.000000 196.907000 89.916800 -105.600000 92.793500 1.073290 -0.255903 15.735700 0.000005 -0.000001 106.199000 85.245000 -107.906000 8.984550 -0.406207 -0.000000 1.411400 2.746390 -3.445450 16.377300 -0.000001 -0.000001 -1.451700 2.515910 -0.738677 6.456720 -0.000001 -0.000000 -14.187300 -0.207722 4.414000 12.994200 -0.242716 4.980390 -94.355800 11.206400 -68.598500 5.348090 -0.000007 -0.000001 -57.760500 -16.204200 -0.605809 24.328600 0.000019 0.000005 2.216710 23.964500 -5.440070 22.291600 -0.000001 0.000005 -1.609230 4.802400 11.233500 12.994500 -0.242716 -4.980390 87.616100 7.095730 -71.375500 -5.348130 -0.000001 -0.000004 -69.465900 15.355600 -10.457300 -24.328900 0.000322 -0.000009 1.435700 3.352250 -23.318300 -22.291500 -0.000108 -0.000004 -0.423205 5.372170 -2.041470 -2.192480 -6.469440 -0.000000 176.853000 4.103710 -24.083700 39.081100 -0.000007 -0.000012 0.237632 -0.331322 35.649100 40.985400 -0.000006 -0.000013 0.785003 9.262380 -69.653300 11.754300 -0.000000 0.000003 0.000857 0.151667 -10.425900 -2.192510 6.469440 -0.000001 173.367000 5.044900 -178.863000 -39.081100 -0.002282 -0.040193 0.189486 -0.153754 50.458100 -40.985400 0.000008 0.000006 -1.926340 -6.482710 -31.764300 -11.754300 -0.000006 -0.000006 0.002448 0.073141 -13.606800
0.000000 0.000000 0.000000 0.000000 0.000000 -0.000000 197.399000 90.335900 -101.436000 93.060500 -0.078337 1.650710 15.735700 0.000005 -0.000001 100.832000 85.080400 -102.668000 8.984550 -0.406207 -0.000000 1.932750 1.941330 -3.702420 16.377300 -0.000001 -0.000001 -0.447545 3.278580 -1.583570 6.456720 -0.000001 -0.000000 -12.941300 0.873657 4.639390 12.994200 -0.242716 4.980390 -94.388100 11.255600 -68.537700 5.348090 -0.000007 -0.000001 -60.814500 -9.284420 -4.141560 24.328600 0.000019 0.000005 5.046970 29.302200 -10.223700 22.291600 -0.000001 0.000005 -7.658970 5.002900 7.224010 12.994500 -0.242716 -4.980390 87.492200 7.466750 -71.374900 -5.348130 -0.000001 -0.000004 -69.643100 13.661000 -8.135520 -24.328900 0.000322 -0.000009 2.324300 10.704100 -12.363500 -22.291500 -0.000108 -0.000004 -3.470830 5.301440 0.042949 -2.192480 -6.469440 -0.000000 176.093000 0.090575 -18.758100 39.081100 -0.000007 -0.000012 0.210272 -0.300473 34.984500 40.985400 -0.000006 -0.000013 1.276040 12.070200 -71.743500 11.754300 -0.000000 0.000003 0.000273 0.162896 -9.970050 -2.192510 6.469440 -0.000001 172.876000 4.344930 175.897000 -39.081100 -0.002282 -0.040193 0.232246 -0.141471 58.297400 -40.985400 0.000008 0.000006 0.009188 -8.041960 -24.624700 -11.754300 -0.000006 -0.000006 0.001506 0.136535 -11.036400
0.000000 0.000000 0.000000 0.000000 0.000000 -0.000000 197.625000 91.213100 -97.414400 92.564900 -0.380855 2.911550 15.735700 0.000005 -0.000001 93.084500 85.041300 -94.606500 8.984550 -0.406207 -0.000000 2.147080 0.607871 -3.052400 16.377300 -0.000001 -0.000001 0.372430 3.911330 -2.643450 6.456720 -0.000001 -0.000000 -11.591000 2.082770 4.081190 12.994200 -0.242716 4.980390 -94.254100 10.971400 -68.652500 5.348090 -0.000007 -0.000001 -62.579500 -0.393351 -6.734720 24.328600 0.000019 0.000005 9.831000 31.284400 -18.451300 22.291600 -0.000001 0.000005 -9.199150 5.134620 4.312520 12.994500 -0.242716 -4.980390 87.670800 6.809520 -71.065400 -5.348130 -0.000001 -0.000004 -69.402500 8.861590 -5.400420 -24.328900 0.000322 -0.000009 1.060310 15.439200 -3.984110 -22.291500 -0.000108 -0.000004 -3.528580 5.184290 3.091140 -2.192480 -6.469440 -0.000000 176.877000 -1.933390 -12.802200 39.081100 -0.000007 -0.000012 0.088952 -0.145910 31.367800 40.985400 -0.000006 -0.000013 -0.335756 14.357300 -71.442000 11.754300 -0.000000 0.000003 0.000435 0.159941 -10.090100 -2.192510 6.469440 -0.000001 173.642000 4.732440 170.939000 -39.081100 -0.002282 -0.040193 0.201618 -0.095265 64.356800 -40.985400 0.000008 0.000006 0.458085 -7.101260 -30.802400 -11.754300 -0.000006 -0.000006 0.001490 0.136957 -11.019300
